<svg width="21" height="20" viewBox="0 0 21 20" fill="none" xmlns="http://www.w3.org/2000/svg">
	<path
		d="M9.4075 20C9.05198 19.9999 8.70159 19.9151 8.38531 19.7527C8.06904 19.5904 7.79595 19.355 7.58864 19.0662C7.38132 18.7774 7.24573 18.4434 7.19308 18.0918C7.14043 17.7402 7.17222 17.3811 7.28584 17.0442L8.9025 12.5H5.63167L4.73167 13.8717C4.50449 14.2188 4.19432 14.5038 3.82923 14.7008C3.46415 14.8978 3.05569 15.0007 2.64084 15C2.29816 15 1.96057 14.9172 1.6567 14.7588C1.35283 14.6004 1.09166 14.3711 0.895356 14.0902C0.699055 13.8093 0.573418 13.4852 0.529109 13.1454C0.4848 12.8056 0.523127 12.4602 0.640837 12.1384L1.41667 10L0.632503 7.86669C0.514512 7.54543 0.475704 7.20046 0.519368 6.86101C0.563032 6.52156 0.687882 6.19764 0.883337 5.91669C1.11554 5.62001 1.41588 5.38371 1.75888 5.22785C2.10187 5.07198 2.4774 5.00114 2.85361 5.02134C3.22981 5.04154 3.5956 5.15219 3.91993 5.34389C4.24426 5.53559 4.51757 5.80268 4.71667 6.12253L5.62917 7.50003H8.9025L7.28917 2.96919C7.17368 2.63063 7.14058 2.26942 7.1926 1.9155C7.24463 1.56159 7.38029 1.22519 7.58834 0.934191C7.83616 0.619442 8.15876 0.37166 8.52678 0.213391C8.89479 0.055122 9.29654 -0.00860949 9.69547 0.0279956C10.0944 0.0646007 10.4778 0.20038 10.8109 0.42298C11.144 0.645579 11.4161 0.947931 11.6025 1.30252L15.15 7.50003H17.9108C18.5135 7.49245 19.0997 7.69695 19.5669 8.07778C20.0341 8.4586 20.3526 8.99151 20.4667 9.58336C20.5273 9.94197 20.5089 10.3095 20.4129 10.6603C20.3168 11.0111 20.1454 11.3367 19.9105 11.6144C19.6757 11.8921 19.383 12.1152 19.0531 12.2682C18.7231 12.4211 18.3637 12.5003 18 12.5H15.15L11.5942 18.7117C11.3786 19.1027 11.0619 19.4286 10.6772 19.6552C10.2925 19.8819 9.854 20.001 9.4075 20ZM5.18167 10.8334H10.0833C10.2164 10.8345 10.3472 10.8673 10.4651 10.929C10.5829 10.9907 10.6844 11.0796 10.7611 11.1883C10.8378 11.297 10.8875 11.4224 10.9062 11.5541C10.9248 11.6859 10.9119 11.8201 10.8683 11.9459L8.86 17.59C8.83317 17.6747 8.82673 17.7645 8.84122 17.8521C8.8557 17.9397 8.89069 18.0227 8.94334 18.0942C9.02739 18.1775 9.12995 18.2397 9.24265 18.2757C9.35534 18.3118 9.47497 18.3207 9.59175 18.3017C9.70853 18.2826 9.81916 18.2363 9.91459 18.1663C10.01 18.0964 10.0875 18.0048 10.1408 17.8992L13.9433 11.25C14.0166 11.1231 14.1221 11.0177 14.2491 10.9446C14.3761 10.8714 14.5201 10.8331 14.6667 10.8334H18C18.1218 10.8334 18.2422 10.8068 18.3526 10.7553C18.463 10.7038 18.5607 10.6287 18.639 10.5354C18.7172 10.442 18.7741 10.3327 18.8055 10.215C18.8369 10.0973 18.8422 9.97412 18.8208 9.85419C18.7715 9.65236 18.654 9.47373 18.4882 9.34848C18.3224 9.22323 18.1185 9.15902 17.9108 9.16669H14.6667C14.5201 9.16698 14.3761 9.12861 14.2491 9.05546C14.1221 8.9823 14.0166 8.87695 13.9433 8.75002L10.1475 2.11586C10.0969 2.00675 10.0206 1.91153 9.92517 1.83831C9.82975 1.7651 9.71801 1.71608 9.59952 1.69545C9.48102 1.67481 9.3593 1.68317 9.24474 1.71981C9.13018 1.75645 9.02619 1.82029 8.94167 1.90586C8.88836 1.97966 8.85351 2.06515 8.84003 2.15519C8.82654 2.24522 8.83482 2.33718 8.86417 2.42336L10.8642 8.05419C10.9076 8.17958 10.9206 8.31348 10.9022 8.44489C10.8837 8.57629 10.8344 8.70144 10.7581 8.81005C10.6819 8.91866 10.581 9.00762 10.4637 9.06962C10.3464 9.13162 10.216 9.16489 10.0833 9.16669H5.18167C5.044 9.16671 4.90847 9.13263 4.78719 9.06748C4.66591 9.00233 4.56266 8.90815 4.48667 8.79336L3.32584 7.04336C3.13584 6.69252 2.46417 6.51252 2.25084 6.86836C2.20726 6.92915 2.1795 6.99982 2.17004 7.07401C2.16059 7.14821 2.16974 7.22358 2.19667 7.29336L3.09 9.71502C3.15822 9.90062 3.15822 10.1044 3.09 10.29L2.20167 12.715C2.1769 12.7848 2.16921 12.8595 2.17925 12.9328C2.18929 13.0062 2.21676 13.0761 2.25935 13.1366C2.30195 13.1972 2.35844 13.2466 2.42409 13.2809C2.48974 13.3151 2.56263 13.3331 2.63667 13.3334C2.77507 13.3334 2.9113 13.299 3.03308 13.2333C3.15485 13.1675 3.25833 13.0725 3.33417 12.9567L4.48084 11.2067C4.55737 11.0911 4.66155 10.9964 4.78393 10.9312C4.90631 10.866 5.04302 10.8324 5.18167 10.8334Z"
		fill="#EB5D50" />
</svg>