<svg width="24" height="25" viewBox="0 0 24 25" fill="none" xmlns="http://www.w3.org/2000/svg">
<mask id="mask0_1_12" style="mask-type:alpha" maskUnits="userSpaceOnUse" x="0" y="1" width="24" height="24">
<rect y="1" width="24" height="24" fill="#D9D9D9"/>
</mask>
<g mask="url(#mask0_1_12)">
<path d="M4 20V18H6V11C6 9.61667 6.41667 8.3875 7.25 7.3125C8.08333 6.2375 9.16667 5.53333 10.5 5.2V4.5C10.5 4.08333 10.6458 3.72917 10.9375 3.4375C11.2292 3.14583 11.5833 3 12 3C12.4167 3 12.7708 3.14583 13.0625 3.4375C13.3542 3.72917 13.5 4.08333 13.5 4.5V5.2C14.8333 5.53333 15.9167 6.2375 16.75 7.3125C17.5833 8.3875 18 9.61667 18 11V18H20V20H4ZM12 23C11.45 23 10.9792 22.8042 10.5875 22.4125C10.1958 22.0208 10 21.55 10 21H14C14 21.55 13.8042 22.0208 13.4125 22.4125C13.0208 22.8042 12.55 23 12 23ZM8 18H16V11C16 9.9 15.6083 8.95833 14.825 8.175C14.0417 7.39167 13.1 7 12 7C10.9 7 9.95833 7.39167 9.175 8.175C8.39167 8.95833 8 9.9 8 11V18Z" fill="#616C76"/>
</g>
<circle cx="18.5" cy="5.5" r="5" fill="#FF4D49" stroke="white"/>
</svg>
