<svg width="20" height="20" viewBox="0 0 20 20" fill="none" xmlns="http://www.w3.org/2000/svg">
<path d="M19.1667 16.6665C18.9457 16.6665 18.7337 16.7543 18.5774 16.9106C18.4211 17.0669 18.3333 17.2789 18.3333 17.4999C18.3333 17.7865 17.765 18.3332 16.875 18.3332C16.625 18.342 16.3762 18.295 16.1465 18.1957C15.9169 18.0964 15.7123 17.9472 15.5475 17.759C15.5801 17.7059 15.6157 17.6547 15.6542 17.6057C17.0132 16.1805 17.9271 14.3899 18.2842 12.4532C18.3899 11.8706 18.2853 11.2693 17.9891 10.7565C17.6928 10.2438 17.2242 9.85279 16.6667 9.65326V7.49995C16.6667 6.6159 16.3155 5.76806 15.6904 5.14294C15.0652 4.51782 14.2174 4.16664 13.3333 4.16664V3.33331C13.3333 2.44926 12.9821 1.60142 12.357 0.976304C11.7319 0.351187 10.8841 0 10 0C9.11594 0 8.2681 0.351187 7.64298 0.976304C7.01786 1.60142 6.66667 2.44926 6.66667 3.33331V4.16664C5.78261 4.16664 4.93476 4.51782 4.30964 5.14294C3.68452 5.76806 3.33333 6.6159 3.33333 7.49995V9.64243C2.76883 9.83742 2.29278 10.2281 1.99135 10.7436C1.68991 11.2592 1.58302 11.8657 1.69 12.4532C2.05596 14.3923 2.97883 16.1827 4.34583 17.6057C4.38582 17.656 4.42283 17.7086 4.45667 17.7632C4.2917 17.9521 4.08634 18.1013 3.85581 18.2C3.62529 18.2987 3.37551 18.3442 3.125 18.3332C2.2175 18.3332 1.66667 17.7549 1.66667 17.4999C1.66667 17.2789 1.57887 17.0669 1.42259 16.9106C1.26631 16.7543 1.05435 16.6665 0.833333 16.6665C0.61232 16.6665 0.400358 16.7543 0.244078 16.9106C0.0877974 17.0669 0 17.2789 0 17.4999C0 18.8549 1.43167 19.9999 3.125 19.9999C3.96765 20.0075 4.78492 19.7117 5.4275 19.1665C6.06842 19.7018 6.87631 19.9961 7.71134 19.9985C8.54637 20.001 9.35597 19.7114 10 19.1799C10.6464 19.7108 11.4576 20 12.2941 19.9976C13.1306 19.9951 13.9401 19.7013 14.5833 19.1665C15.2221 19.7088 16.0338 20.0044 16.8717 19.9999C18.5683 19.9999 20 18.8549 20 17.4999C20 17.2789 19.9122 17.0669 19.7559 16.9106C19.5996 16.7543 19.3877 16.6665 19.1667 16.6665ZM8.33333 3.33331C8.33333 2.89129 8.50893 2.46736 8.82149 2.15481C9.13405 1.84225 9.55797 1.66665 10 1.66665C10.442 1.66665 10.8659 1.84225 11.1785 2.15481C11.4911 2.46736 11.6667 2.89129 11.6667 3.33331V4.16664H8.33333V3.33331ZM6.66667 5.83329H13.3333C13.7754 5.83329 14.1993 6.00888 14.5118 6.32144C14.8244 6.634 15 7.05792 15 7.49995V9.09993L10.79 7.71828C10.2782 7.54994 9.72596 7.54994 9.21417 7.71828L5 9.0941V7.49995C5 7.05792 5.17559 6.634 5.48816 6.32144C5.80072 6.00888 6.22464 5.83329 6.66667 5.83329ZM7.70833 18.3332C7.42981 18.3484 7.15208 18.2913 6.9022 18.1673C6.65233 18.0433 6.43883 17.8567 6.2825 17.6257C6.10892 17.2096 5.8704 16.8237 5.57583 16.4824C4.42701 15.293 3.64801 13.7958 3.33333 12.1724C3.29486 11.9727 3.32939 11.7659 3.43065 11.5895C3.53191 11.4131 3.69315 11.279 3.885 11.2116L9.16667 9.48577V17.4999C9.16667 17.7865 8.59833 18.3332 7.70833 18.3332ZM12.2917 18.3332C11.3842 18.3332 10.8333 17.7549 10.8333 17.4999V9.4866L16.0875 11.2108C16.28 11.278 16.4419 11.4122 16.5438 11.5889C16.6457 11.7656 16.6807 11.9729 16.6425 12.1732C16.3369 13.7945 15.5661 15.2917 14.4242 16.4824C14.1277 16.8242 13.889 17.212 13.7175 17.6307C13.5611 17.8613 13.3475 18.0474 13.0975 18.1705C12.8475 18.2937 12.5698 18.3497 12.2917 18.3332Z" fill="#EB5D50"/>
</svg>
