<svg width="80" height="80" viewBox="0 0 80 80" fill="none" xmlns="http://www.w3.org/2000/svg">
<rect width="80" height="80" rx="16" fill="#6B120A"/>
<mask id="mask0_1_34" style="mask-type:alpha" maskUnits="userSpaceOnUse" x="22" y="22" width="36" height="36">
<rect x="22" y="22" width="36" height="36" fill="#D9D9D9"/>
</mask>
<g mask="url(#mask0_1_34)">
<path d="M32.5 43C32.925 43 33.2812 42.8563 33.5688 42.5688C33.8562 42.2813 34 41.925 34 41.5C34 41.075 33.8562 40.7188 33.5688 40.4313C33.2812 40.1438 32.925 40 32.5 40C32.075 40 31.7188 40.1438 31.4312 40.4313C31.1437 40.7188 31 41.075 31 41.5C31 41.925 31.1437 42.2813 31.4312 42.5688C31.7188 42.8563 32.075 43 32.5 43ZM32.5 37C32.925 37 33.2812 36.8562 33.5688 36.5688C33.8562 36.2812 34 35.925 34 35.5C34 35.075 33.8562 34.7188 33.5688 34.4312C33.2812 34.1437 32.925 34 32.5 34C32.075 34 31.7188 34.1437 31.4312 34.4312C31.1437 34.7188 31 35.075 31 35.5C31 35.925 31.1437 36.2812 31.4312 36.5688C31.7188 36.8562 32.075 37 32.5 37ZM35.5 43H49V40H35.5V43ZM35.5 37H49V34H35.5V37ZM34 53.5V50.5H28C27.175 50.5 26.4688 50.2063 25.8813 49.6188C25.2938 49.0312 25 48.325 25 47.5V29.5C25 28.675 25.2938 27.9688 25.8813 27.3813C26.4688 26.7938 27.175 26.5 28 26.5H52C52.825 26.5 53.5312 26.7938 54.1188 27.3813C54.7063 27.9688 55 28.675 55 29.5V47.5C55 48.325 54.7063 49.0312 54.1188 49.6188C53.5312 50.2063 52.825 50.5 52 50.5H46V53.5H34ZM28 47.5H52V29.5H28V47.5Z" fill="white"/>
</g>
</svg>
