<svg width="80" height="80" viewBox="0 0 80 80" fill="none" xmlns="http://www.w3.org/2000/svg">
<rect width="80" height="80" rx="16" fill="#EB5D50"/>
<mask id="mask0_1_52" style="mask-type:alpha" maskUnits="userSpaceOnUse" x="22" y="22" width="36" height="36">
<rect x="22" y="22" width="36" height="36" fill="#D9D9D9"/>
</mask>
<g mask="url(#mask0_1_52)">
<path d="M40 55C37.925 55 35.975 54.6062 34.15 53.8187C32.325 53.0312 30.7375 51.9625 29.3875 50.6125C28.0375 49.2625 26.9688 47.675 26.1813 45.85C25.3937 44.025 25 42.075 25 40C25 37.925 25.3937 35.975 26.1813 34.15C26.9688 32.325 28.0375 30.7375 29.3875 29.3875C30.7375 28.0375 32.325 26.9688 34.15 26.1813C35.975 25.3937 37.925 25 40 25C42.075 25 44.025 25.3937 45.85 26.1813C47.675 26.9688 49.2625 28.0375 50.6125 29.3875C51.9625 30.7375 53.0312 32.325 53.8187 34.15C54.6062 35.975 55 37.925 55 40C55 42.075 54.6062 44.025 53.8187 45.85C53.0312 47.675 51.9625 49.2625 50.6125 50.6125C49.2625 51.9625 47.675 53.0312 45.85 53.8187C44.025 54.6062 42.075 55 40 55ZM40 52C41.35 52 42.65 51.7812 43.9 51.3438C45.15 50.9062 46.3 50.275 47.35 49.45L30.55 32.65C29.725 33.7 29.0938 34.85 28.6562 36.1C28.2188 37.35 28 38.65 28 40C28 43.35 29.1625 46.1875 31.4875 48.5125C33.8125 50.8375 36.65 52 40 52ZM49.45 47.35C50.275 46.3 50.9062 45.15 51.3438 43.9C51.7812 42.65 52 41.35 52 40C52 36.65 50.8375 33.8125 48.5125 31.4875C46.1875 29.1625 43.35 28 40 28C38.65 28 37.35 28.2188 36.1 28.6562C34.85 29.0938 33.7 29.725 32.65 30.55L49.45 47.35Z" fill="white"/>
</g>
</svg>
