<svg width="80" height="80" viewBox="0 0 80 80" fill="none" xmlns="http://www.w3.org/2000/svg">
<rect width="80" height="80" rx="16" fill="#F7A668"/>
<mask id="mask0_1_43" style="mask-type:alpha" maskUnits="userSpaceOnUse" x="22" y="22" width="36" height="36">
<rect x="22" y="22" width="36" height="36" fill="#D9D9D9"/>
</mask>
<g mask="url(#mask0_1_43)">
<path d="M28 53.5C27.175 53.5 26.4688 53.2063 25.8813 52.6188C25.2938 52.0312 25 51.325 25 50.5V29.5C25 28.675 25.2938 27.9688 25.8813 27.3813C26.4688 26.7938 27.175 26.5 28 26.5H52C52.825 26.5 53.5312 26.7938 54.1188 27.3813C54.7063 27.9688 55 28.675 55 29.5V50.5C55 51.325 54.7063 52.0312 54.1188 52.6188C53.5312 53.2063 52.825 53.5 52 53.5H28ZM28 50.5H52V29.5H28V50.5ZM29.5 47.5H37V44.5H29.5V47.5ZM43.825 44.5L51.25 37.075L49.1125 34.9375L43.825 40.2625L41.6875 38.125L39.5875 40.2625L43.825 44.5ZM29.5 41.5H37V38.5H29.5V41.5ZM29.5 35.5H37V32.5H29.5V35.5Z" fill="white"/>
</g>
</svg>
