<svg width="20" height="20" viewBox="0 0 20 20" fill="none" xmlns="http://www.w3.org/2000/svg">
	<path
		d="M11.6667 3.33331C11.6667 2.67027 11.4033 2.03439 10.9344 1.56555C10.4656 1.09671 9.82971 0.833313 9.16667 0.833313H2.5C1.83696 0.833313 1.20107 1.09671 0.732233 1.56555C0.263392 2.03439 0 2.67027 0 3.33331L0 12.5H11.6667V3.33331ZM10 10.8333H1.66667V3.33331C1.66667 3.1123 1.75446 2.90034 1.91074 2.74406C2.06702 2.58778 2.27899 2.49998 2.5 2.49998H9.16667C9.38768 2.49998 9.59964 2.58778 9.75592 2.74406C9.9122 2.90034 10 3.1123 10 3.33331V10.8333ZM3.33333 4.16665H5V9.16665H3.33333V4.16665ZM6.66667 4.16665H8.33333V9.16665H6.66667V4.16665ZM20 10.5408C20.0003 10.093 19.928 9.64802 19.7858 9.22331L18.6667 5.87581C18.5009 5.37876 18.1832 4.94635 17.7584 4.63966C17.3336 4.33297 16.8231 4.16751 16.2992 4.16665H13.3333V14.1666H0V16.25C0.00712928 16.8261 0.183939 17.3874 0.508324 17.8637C0.832709 18.3399 1.29028 18.7099 1.82382 18.9275C2.35737 19.1451 2.94322 19.2006 3.50814 19.0871C4.07305 18.9735 4.59196 18.696 5 18.2891C5.40804 18.696 5.92695 18.9735 6.49186 19.0871C7.05678 19.2006 7.64263 19.1451 8.17618 18.9275C8.70972 18.7099 9.16729 18.3399 9.49168 17.8637C9.81606 17.3874 9.99287 16.8261 10 16.25V15.8333H13.3333V16.25C13.3333 17.0235 13.6406 17.7654 14.1876 18.3124C14.7346 18.8594 15.4765 19.1666 16.25 19.1666C17.0235 19.1666 17.7654 18.8594 18.3124 18.3124C18.8594 17.7654 19.1667 17.0235 19.1667 16.25V15.8333H20V10.5408ZM15 14.1666V10.8333H18.3333V14.1666H15ZM16.2992 5.83331C16.4741 5.83327 16.6447 5.8883 16.7866 5.99061C16.9286 6.09292 17.0347 6.23731 17.09 6.40331L18.01 9.16665H15V5.83331H16.2992ZM2.91667 17.5C2.58515 17.5 2.2672 17.3683 2.03278 17.1339C1.79836 16.8994 1.66667 16.5815 1.66667 16.25V15.8333H4.16667V16.25C4.16667 16.5815 4.03497 16.8994 3.80055 17.1339C3.56613 17.3683 3.24819 17.5 2.91667 17.5ZM8.33333 16.25C8.33333 16.5815 8.20164 16.8994 7.96722 17.1339C7.7328 17.3683 7.41485 17.5 7.08333 17.5C6.75181 17.5 6.43387 17.3683 6.19945 17.1339C5.96503 16.8994 5.83333 16.5815 5.83333 16.25V15.8333H8.33333V16.25ZM17.5 16.25C17.5 16.5815 17.3683 16.8994 17.1339 17.1339C16.8995 17.3683 16.5815 17.5 16.25 17.5C15.9185 17.5 15.6005 17.3683 15.3661 17.1339C15.1317 16.8994 15 16.5815 15 16.25V15.8333H17.5V16.25Z"
		fill="#EB5D50" />
</svg>