<svg width="80" height="80" viewBox="0 0 80 80" fill="none" xmlns="http://www.w3.org/2000/svg">
<rect width="80" height="80" rx="16" fill="#7BB896"/>
<mask id="mask0_1_61" style="mask-type:alpha" maskUnits="userSpaceOnUse" x="22" y="22" width="36" height="36">
<rect x="22" y="22" width="36" height="36" fill="#D9D9D9"/>
</mask>
<g mask="url(#mask0_1_61)">
<path d="M40 55C37.925 55 35.975 54.6062 34.15 53.8187C32.325 53.0312 30.7375 51.9625 29.3875 50.6125C28.0375 49.2625 26.9688 47.675 26.1813 45.85C25.3937 44.025 25 42.075 25 40C25 37.925 25.3937 35.975 26.1813 34.15C26.9688 32.325 28.0375 30.7375 29.3875 29.3875C30.7375 28.0375 32.325 26.9688 34.15 26.1813C35.975 25.3937 37.925 25 40 25C42.075 25 44.025 25.3937 45.85 26.1813C47.675 26.9688 49.2625 28.0375 50.6125 29.3875C51.9625 30.7375 53.0312 32.325 53.8187 34.15C54.6062 35.975 55 37.925 55 40C55 42.075 54.6062 44.025 53.8187 45.85C53.0312 47.675 51.9625 49.2625 50.6125 50.6125C49.2625 51.9625 47.675 53.0312 45.85 53.8187C44.025 54.6062 42.075 55 40 55ZM40 52C41.6 52 43.1375 51.7 44.6125 51.1C46.0875 50.5 47.3875 49.6375 48.5125 48.5125L40 40V28C36.65 28 33.8125 29.1625 31.4875 31.4875C29.1625 33.8125 28 36.65 28 40C28 43.35 29.1625 46.1875 31.4875 48.5125C33.8125 50.8375 36.65 52 40 52Z" fill="white"/>
</g>
</svg>
